<svg width="114" height="41" viewBox="0 0 114 41" fill="none" xmlns="http://www.w3.org/2000/svg">
<path d="M80 31H81.4759L82.0241 29.0894H84.9337L85.4819 31H87L84.3855 22H82.6145L80 31ZM82.4036 27.6313L83.4578 23.8603L84.512 27.6313H82.4036Z" fill="#232E35"/>
<path d="M70 31H73V22H70V31Z" fill="#232E35"/>
<path d="M75 31H78V22H75V31Z" fill="#232E35"/>
<path d="M60 31H63V22H60V31Z" fill="#232E35"/>
<path d="M60.0417 20.1111L60.7001 20.8638L62.9582 18.8887L62.2998 18.136L60.0417 20.1111Z" fill="#232E35"/>
<path d="M70 19.9751L70.6583 20.7278L72.9164 18.7527L72.2581 18L70 19.9751Z" fill="#232E35"/>
<path d="M75 19.9751L75.6583 20.7278L77.9164 18.7527L77.2581 18L75 19.9751Z" fill="#232E35"/>
<path d="M50 28.0651L50.0217 31.065L59.0214 30.9999L58.9998 28L50 28.0651Z" fill="#232E35"/>
<path d="M47 31H50V9H47V31Z" fill="#232E35"/>
<path d="M65 31H68V9H65V31Z" fill="#232E35"/>
<path d="M20 0.5C9 0.5 0 9.5 0 20.5C0 31.5 9 40.5 20 40.5C31 40.5 40 31.5 40 20.5C40 9.5 31 0.5 20 0.5ZM11.8 28C9.6 28 10 27.7 10 25.5C10 23.3 11.3 26.5 13.5 26.5C15.7 26.5 18.5 20.5 17.5 22C17 24.5 14 28 11.8 28ZM28.5 26.9C26.7 28 24.3 27.3 23.2 25.5L18.1004 15.2028C13.0004 37.4028 18.1004 11.5 19.1004 11.2028C31.1004 36.8028 26.5 21 28 21L29.9 21.6C30.5 21.5 30.3 25.9 28.5 26.9Z" fill="#232E35"/>
</svg>
